<svg width="23" height="24" viewBox="0 0 23 24" fill="none" xmlns="http://www.w3.org/2000/svg">
<path d="M20.4286 10.2857H13.5715C13.0981 10.2857 12.7144 10.6695 12.7144 11.1428V21.4286C12.7144 21.9019 13.0981 22.2857 13.5715 22.2857H20.4286C20.902 22.2857 21.2858 21.9019 21.2858 21.4286V11.1428C21.2858 10.6695 20.902 10.2857 20.4286 10.2857Z" stroke="#747475" stroke-width="1.5" stroke-linecap="round" stroke-linejoin="round"/>
<path d="M20.4285 0.999996H13.5714C13.098 0.999996 12.7142 1.38375 12.7142 1.85714V5.30285C12.7142 5.77624 13.098 6.16 13.5714 6.16H20.4285C20.9019 6.16 21.2857 5.77624 21.2857 5.30285V1.85714C21.2857 1.38375 20.9019 0.999996 20.4285 0.999996Z" stroke="#747475" stroke-width="1.5" stroke-linecap="round" stroke-linejoin="round"/>
<path d="M8.71429 0.999996H1.85714C1.38376 0.999996 1 1.38375 1 1.85714V12.1429C1 12.6162 1.38376 13 1.85714 13H8.71429C9.18767 13 9.57143 12.6162 9.57143 12.1429V1.85714C9.57143 1.38375 9.18767 0.999996 8.71429 0.999996Z" stroke="#747475" stroke-width="1.5" stroke-linecap="round" stroke-linejoin="round"/>
<path d="M8.71429 17.1257H1.85714C1.38376 17.1257 1 17.5095 1 17.9828V21.4286C1 21.9019 1.38376 22.2857 1.85714 22.2857H8.71429C9.18767 22.2857 9.57143 21.9019 9.57143 21.4286V17.9828C9.57143 17.5095 9.18767 17.1257 8.71429 17.1257Z" stroke="#747475" stroke-width="1.5" stroke-linecap="round" stroke-linejoin="round"/>
</svg>
